<svg xmlns="http://www.w3.org/2000/svg" viewBox="0 0 360 360">
  <path fill="#F5B63F" d="M358.839 130.772c-.666-.618-1.432-.931-2.278-.931-3.092 0-6.364 4.36-9.251 8.208-1.091 1.454-2.527 3.368-3.262 4.005-.086-1.467 1.019-5.633 1.85-8.764 2.099-7.914 4.27-16.096.735-18a2.42 2.42 0 0 0-1.157-.299c-2.545 0-4.492 3.814-7.458 10.037-2.322 4.871-5.211 10.934-7.597 10.934-.152 0-.302-.026-.456-.081-.42-.75-.383-4.184-.355-6.71.072-6.618.153-14.118-4.047-14.678a2.775 2.775 0 0 0-.374-.025c-3.63 0-5.748 6.793-7.99 13.986-1.092 3.504-2.743 8.8-3.677 9.158-1.255-.251-3.792-4.038-5.83-7.081-3.343-4.99-6.533-9.684-9.487-9.441-3.081.257-3.033 4.63-2.983 9.261.041 3.803.093 8.537-1.81 9.561a1.256 1.256 0 0 1-.61.147c-2.116 0-5.594-3.792-8.389-6.839-3.259-3.552-5.348-5.73-7.152-5.73-.446 0-.866.138-1.214.399-1.985 1.489-1.873 5.99-1.754 10.755.06 2.402.15 5.988-.344 6.747-.916-.125-3.528-1.861-5.844-3.398-5.123-3.402-11.498-7.637-16.64-7.637a7.69 7.69 0 0 0-2.363.351c-5.578 1.796-6.648 4.437-7.356 6.185-.371.916-.557 1.33-1.071 1.55-.643.274-1.683.166-2.827-.007-.757-.115-1.541-.233-2.374-.233-1.837 0-3.357.627-4.649 1.919-1.313 1.313-2.487 2.87-3.623 4.375-1.689 2.24-3.286 4.356-4.824 4.933-.813.305-2.441 2.006-7.028 6.88-10.088 10.717-31.079 33.019-41.837 33.02-2.013 0-3.517-.806-4.597-2.464-1.786-2.741-4.461-7.761-7.848-14.118-10.695-20.071-26.858-50.404-40.608-57.508C84.014 100.41 52.865 70.21 36.131 53.986c-9.126-8.848-12.368-11.908-14.058-11.908a1.36 1.36 0 0 0-1.154.599c-.489.729-.313 1.869.648 4.208 2.911 7.082 9.584 16.8 14.947 24.608 3.098 4.511 6.55 9.539 7.476 11.644-2.52-1.166-7.368-6.289-11.35-10.497-7.015-7.41-11.486-11.91-14.439-11.91a2.39 2.39 0 0 0-1.48.479c-2.261 1.718.989 6.297 6.928 14.243 2.367 3.167 5.852 7.83 6.29 9.438-1.261-.268-4.061-2.483-6.338-4.285-3.86-3.054-7.853-6.212-10.77-6.212-.56 0-1.073.115-1.526.341-.667.333-1.102.876-1.26 1.571-.481 2.12 1.733 5.176 5.167 9.597 1.496 1.925 3.712 4.779 3.886 5.796-.138.028-.29.042-.453.042-1.562 0-3.849-1.215-6.061-2.391-2.423-1.288-4.712-2.504-6.602-2.504-.645 0-1.22.144-1.709.427-2.151 1.245-.206 5.114 1.854 9.209.563 1.121 1.296 2.578 1.563 3.347-.509.071-1.345.072-1.95.073-1.945.003-3.957.006-5.05 1.119-.46.467-.697 1.086-.687 1.79.042 2.656 42.16 92.95 91.761 127.749 6.636 4.656 9.21 12.982 11.699 21.034.909 2.94 1.767 5.717 2.806 8.239.374.909.379 1.669.017 2.394-1.564 3.123-9.652 5.201-18.215 7.4-4.941 1.27-10.049 2.582-15.005 4.292-61.734 7.598-61.731 11.024-61.731 12.672 0 3.317 2.206 4.9 3.817 6.056 1.625 1.166 1.86 1.497 1.573 2.215-.376.941-1.279 1.909-2.234 2.934-2.065 2.217-4.636 4.975-3.093 9.09.558 1.487 2.389 2.21 5.597 2.21 5.546 0 14.548-2.09 21.165-3.857-14.858 8.494-14.859 10.045-14.859 10.603 0 .755 0 2.162 8.549 2.162 8.537 0 22.06-1.545 32.073-5.898 3.096-1.346 5.734-2.64 8.285-3.89 2.409-1.181 4.688-2.298 6.98-3.265 26.126 1.41 66.339 3.05 94.063 3.05 15.604 0 25.431-.522 29.205-1.551 5.059-1.38 10.855-3.62 16.993-5.991 11.324-4.375 23.033-8.9 32.104-8.9 1.857 0 3.552.198 5.037.589 13.288 3.496 18.372 14.022 18.422 14.128l.201.427.456.117c.079.02.506.121 1.167.121 1.913 0 6.598-.903 8.793-9.264 1.29-4.914-1.226-8.538-2.162-9.672.235-2.671.776-15.885-10.323-24.661-6.735-5.326-13.414-7.774-17.833-9.395-2.089-.766-4.951-1.815-4.901-2.371.454-2.894 28.565-60.374 68.724-73.151 31.045-9.878 38.504-29.301 40.27-37.192 1.081-4.845.85-9.148-.565-10.462z"/>
</svg>