<svg xmlns="http://www.w3.org/2000/svg" viewBox="0 0 280 75">
  <g transform="translate(40, 0)">
    <path d="M21.92 46.55l-3.69 2.78-3.63-2.78H7.41l-2.52 2.11-1.21-2.11H0v26.02h4.89V51.03h9.62v21.54h4.88V51.03h9.62v21.54h4.89V49.99l-2.7-3.44h-9.28zM72.32 46.55l-3.74 2.4v20.96l3.74 2.4h15.15v-4.48h-14v-16.8h14v-4.48H72.32zM94.86 34.95v37.62h4.89V51.03h12.14v21.54h4.88V50l-2.69-3.45H99.75v-11.6h-4.89zM124.41 72.57h4.88V46.81h-4.88zm-.25-32.1h5.39V35h-5.39zM137.2 72.57h4.89V46.81h-4.89zm-.25-32.1h5.39V35h-5.39zM157.14 46.55l-2.53 2.11-1.2-2.11h-3.68v26.02h4.88V51.03h11.64v21.54h4.88V49.99l-2.69-3.44h-11.3zM183.41 61.75h10.12v6.34h-10.12zM181 46.55V51h12.49v6.23h-11.22l-3.74 3.45v8.4l3.74 3.46H190l3.58-2.12 1.42 2.15h3.41V50l-3.75-3.45zM46.18 61.75H56.3v6.34H46.18zm-2.37-15.2V51H56.3v6.23H45l-3.74 3.45v8.4L45 72.57h7.69l3.58-2.12 1.47 2.12h3.41V50l-3.75-3.45zM68.58 0H0v27.66L20.46 7.2v20.46L40.92 7.2v20.46L68.58 0z"/>
  </g>
</svg>