<svg xmlns="http://www.w3.org/2000/svg" viewBox="0 0 350 45">
  <style>.style0{fill:#333;fill-rule:nonzero}</style>
  <path d="M93.155 44.815H89.43V29.973l-2.455 7.315h-1.658l-2.458-7.315v14.842h-3.682V17.001h1.842l5.125 14.486 5.167-14.486h1.844v27.814zM103.845 36.817l-1.519-11.636-1.516 11.636h3.035zm4.659 7.998h-3.576l-.688-4.934h-3.826l-.651 4.934h-3.397l4.226-27.813h3.689l4.223 27.813zM123.531 44.815h-1.844l-6.248-15.85v15.85h-3.685V17.001h1.843l6.212 15.961V17.001h3.722v27.814zM140.146 44.815h-1.842l-6.248-15.85v15.85h-3.687V17.001h1.843l6.212 15.961V17.001h3.722v27.814zM148.816 44.815h-3.833V17h3.833v27.815zM165.394 44.815h-1.842l-6.25-15.85v15.85h-3.685V17.001h1.843l6.212 15.961V17.001h3.722v27.814zM181.865 43.99c-1.086.672-2.456 1.01-4.118 1.01-5.398 0-8.093-4.712-8.093-14.126 0-9.37 2.553-14.057 7.657-14.057.844 0 1.654.109 2.421.327v2.953c-.675-.14-1.242-.212-1.697-.212-3.013 0-4.514 3.661-4.514 10.989 0 7.372 1.457 11.062 4.37 11.062.171 0 .3-.013.395-.038v-5.764c0-1.364-.156-2.306-.47-2.813-.239-.406-.65-.61-1.224-.61-.29 0-.497.013-.616.035v-3.027c.408-.07.829-.107 1.265-.107 3.084 0 4.624 2.28 4.624 6.848v7.53zM199.776 25.433c0-3.555-1.07-5.335-3.21-5.335v12.254c.6-.096 1.224-.635 1.875-1.625.89-1.342 1.335-3.107 1.335-5.294m3.865.036c0 3.193-.987 5.815-2.96 7.851-1.301 1.327-2.67 2.181-4.114 2.562v8.934h-3.832V17h2.924c2.29 0 4.132.609 5.53 1.835 1.634 1.468 2.452 3.678 2.452 6.633M218.452 37.974c0 2.304-.59 4.094-1.768 5.37-1.039 1.102-2.347 1.655-3.938 1.655-1.567 0-2.868-.553-3.9-1.656-1.157-1.275-1.737-3.065-1.737-5.369V17.001h3.83v21.725c0 1.037.182 1.828.542 2.382.361.549.782.829 1.265.829.483 0 .916-.28 1.299-.829.387-.554.58-1.345.58-2.382V17.001h3.827v20.973zM230.626 35.629c0-2.57-.687-4.539-2.06-5.909a4.945 4.945 0 0 1-1.555.254v11.782c.99 0 1.796-.421 2.422-1.26.792-1.058 1.193-2.68 1.193-4.867m-.76-12.178c0-2.188-.949-3.316-2.855-3.387v6.738c1.906-.049 2.855-1.165 2.855-3.351m4.66 12.178c0 3.34-.89 5.793-2.673 7.352-1.42 1.225-3.31 1.834-5.668 1.834h-3V17h3.069c2 0 3.67.493 5.02 1.477 1.59 1.152 2.385 2.81 2.385 4.973 0 2.16-.698 3.785-2.096 4.864.7.553 1.326 1.354 1.88 2.412.72 1.466 1.083 3.102 1.083 4.902M247.637 44.815h-8.992V17.001h3.827v24.755h5.165v3.06zM254.788 44.815h-3.83V17h3.83v27.815zM268.515 44.747a6.704 6.704 0 0 1-1.88.252c-5.107 0-7.658-4.71-7.658-14.125 0-9.37 2.551-14.056 7.657-14.056.675 0 1.301.087 1.88.254v2.992c-.65-.12-1.085-.179-1.3-.179-2.913 0-4.367 3.66-4.367 10.99 0 7.371 1.478 11.061 4.44 11.061.286 0 .697-.05 1.228-.143v2.954zM278.05 36.817l-1.516-11.636-1.52 11.636h3.036zm4.66 7.998h-3.577l-.682-4.934h-3.832l-.65 4.934h-3.395l4.225-27.813h3.684l4.226 27.813zM295.712 20.064h-3.723v24.75h-3.826v-24.75h-3.72v-3.063h11.269v3.063zM302.865 44.815h-3.83V17h3.83v27.815zM315.904 30.909c0-7.35-.831-11.024-2.494-11.024-1.66 0-2.492 3.674-2.492 11.024s.832 11.027 2.492 11.027c1.663 0 2.494-3.677 2.494-11.027m3.828 0c0 5.455-.672 9.31-2.023 11.567-.988 1.679-2.42 2.523-4.299 2.523-1.878 0-3.323-.844-4.333-2.523-1.348-2.257-2.023-6.112-2.023-11.567 0-5.453.675-9.311 2.023-11.566 1.01-1.68 2.455-2.526 4.333-2.526 1.878 0 3.31.846 4.299 2.526 1.35 2.255 2.023 6.113 2.023 11.566M335.733 44.815h-1.842l-6.25-15.85v15.85h-3.68V17.001h1.838l6.211 15.961V17.001h3.723v27.814zM350 37.824c0 2.357-.706 4.185-2.13 5.48-1.254 1.13-2.78 1.695-4.59 1.695-1.493 0-2.745-.324-3.754-.973l1.337-2.703c.649.382 1.458.576 2.417.576.747 0 1.399-.289 1.953-.867.624-.668.94-1.62.94-2.846 0-1.99-1.035-4.454-3.108-7.384-1.229-1.752-2.094-3.212-2.6-4.379a9.3 9.3 0 0 1-.761-3.732c0-1.8.538-3.228 1.609-4.285 1.072-1.059 2.51-1.588 4.317-1.588 1.255 0 2.253.242 2.995.723l-1.298 2.665a4.375 4.375 0 0 0-1.734-.36c-.626 0-1.137.224-1.536.669-.396.44-.594 1.037-.594 1.781 0 .917.276 1.898.829 2.954.361.745 1.061 1.85 2.096 3.316 1.254 1.8 2.145 3.315 2.673 4.543.626 1.512.939 3.088.939 4.715" class="style0"/>
  <path d="M8.506 0h26.248v27.542C36.257 18.466 37.548 9.182 38.946 0h26.249v44.999h-24.77V6.393C38.401 19.172 36.452 32.028 34.63 45H9.988V4.793C7.321 18.086 4.948 31.658 2.34 44.999H0C2.807 30.137 5.6 15.259 8.38.369 8.37.192 8.362.022 8.506 0" fill="#333" fill-rule="evenodd"/>
</svg>