<svg xmlns="http://www.w3.org/2000/svg" viewBox="0 0 177 24"><path d="M130.088 7.045h3.501v2.44h-3.5v9.575c0 .834.182 1.453.547 1.86.365.407.842.61 1.431.61.487 0 .994-.162 1.522-.488v2.623a7.368 7.368 0 0 1-2.161.335c-1.178 0-2.147-.406-2.908-1.22-.76-.813-1.141-2.134-1.141-3.964V9.484h-2.802v-2.44h2.802V2.288h2.71v4.758zm43.981 13.273a.5.5 0 0 1-.395.16h-.701v-1.086h.637c.195 0 .345.055.446.166.102.11.153.242.153.396a.536.536 0 0 1-.14.364zm.79-.428c0-.29-.102-.538-.306-.747-.204-.208-.497-.312-.879-.312h-1.338v3.14h.637v-.92h.612l.522.92h.701l-.636-1.047c.458-.196.687-.54.687-1.034zm.745 2.725c-.556.566-1.26.849-2.108.849-.841 0-1.54-.283-2.096-.849-.557-.566-.836-1.27-.836-2.113 0-.842.28-1.548.836-2.118.555-.57 1.255-.855 2.096-.855.849 0 1.552.282 2.108.849.557.566.835 1.274.835 2.124 0 .843-.278 1.547-.835 2.113zm.395-4.627c-.666-.664-1.501-.996-2.503-.996-1.003 0-1.837.332-2.504.996-.668.664-1 1.502-1 2.514 0 1.013.332 1.85 1 2.509.667.66 1.501.989 2.504.989 1.002 0 1.837-.33 2.503-.99.667-.658 1.001-1.495 1.001-2.508 0-1.012-.334-1.85-1-2.514zm-12.219 5.615h2.71V.183h-2.71v23.42zm-7.954 0h2.71V7.045h-2.71v16.558zM158.688.641c.426.427.64.945.64 1.555 0 .59-.214 1.093-.64 1.51a2.138 2.138 0 0 1-1.553.624c-.59 0-1.091-.208-1.507-.625a2.057 2.057 0 0 1-.625-1.51c0-.61.21-1.127.625-1.554.416-.427.918-.641 1.507-.641.609 0 1.127.214 1.553.64zm-11.61 15.857c0 1.586-.447 2.811-1.34 3.675-.893.864-1.959 1.296-3.197 1.296-.852 0-1.567-.224-2.146-.671-.578-.447-.868-1.098-.868-1.951 0-.509.107-.946.32-1.312.213-.366.558-.665 1.035-.9a8.116 8.116 0 0 1 1.294-.518c.386-.112.933-.25 1.644-.412 1.461-.305 2.547-.701 3.258-1.189v1.982zm3.075 4.635c-.244-.284-.366-.71-.366-1.28v-7.289c0-2.033-.538-3.532-1.613-4.498-1.076-.965-2.527-1.448-4.354-1.448-1.684 0-3.085.366-4.201 1.097-1.117.733-1.929 1.658-2.436 2.776l2.314 1.159c.792-1.749 2.192-2.623 4.2-2.623.955 0 1.747.219 2.376.656.629.437.944 1.042.944 1.814 0 .63-.244 1.072-.73 1.326-.488.255-1.412.514-2.771.778-.873.183-1.522.325-1.949.427-.426.102-1.005.295-1.735.58-.731.284-1.28.594-1.645.93-.365.335-.695.803-.989 1.403-.294.6-.441 1.285-.441 2.058 0 1.606.502 2.84 1.506 3.705 1.005.864 2.218 1.296 3.639 1.296 1.157 0 2.218-.29 3.182-.87a5.364 5.364 0 0 0 2.146-2.363c-.02.956.253 1.734.822 2.334.568.599 1.289.899 2.162.899.67 0 1.258-.152 1.766-.458v-2.226c-.365.164-.67.244-.914.244-.366 0-.67-.142-.913-.427zm-33.857-8.69l6.607 11.16h-3.197l-5.328-9.179-2.527 2.714v6.465h-2.71V.153h2.71v13.326l5.968-6.434h3.592l-5.115 5.398zm-12.756 5.946l2.253 1.311c-.71 1.342-1.68 2.394-2.908 3.156A7.503 7.503 0 0 1 98.851 24c-2.111 0-3.948-.752-5.51-2.257-1.564-1.504-2.345-3.648-2.345-6.434 0-2.765.766-4.905 2.299-6.42 1.532-1.514 3.353-2.271 5.465-2.271 1.4 0 2.7.34 3.897 1.021 1.197.682 2.1 1.662 2.71 2.943l-2.406 1.342c-.406-.854-.989-1.515-1.75-1.983a4.603 4.603 0 0 0-2.451-.701c-1.36 0-2.532.53-3.516 1.586-.985 1.057-1.477 2.542-1.477 4.452 0 1.952.512 3.451 1.537 4.499 1.025 1.047 2.248 1.57 3.669 1.57.974 0 1.873-.26 2.694-.778.822-.518 1.447-1.244 1.873-2.18zm-19.417 1.22c-.985 1.179-2.269 1.768-3.851 1.768-1.604 0-2.903-.59-3.897-1.768-.995-1.18-1.492-2.613-1.492-4.3 0-1.688.497-3.12 1.492-4.3.994-1.179 2.293-1.769 3.897-1.769 1.582 0 2.866.59 3.85 1.769.985 1.18 1.477 2.612 1.477 4.3 0 1.687-.492 3.12-1.476 4.3zM80.24 6.618c-2.436 0-4.4.834-5.891 2.5-1.492 1.668-2.238 3.731-2.238 6.191s.746 4.524 2.238 6.19C75.842 23.167 77.805 24 80.24 24s4.4-.833 5.891-2.5c1.492-1.667 2.237-3.731 2.237-6.19 0-2.461-.745-4.524-2.237-6.192-1.492-1.666-3.455-2.5-5.891-2.5zM67.727 18.389l2.254 1.311c-.711 1.342-1.68 2.394-2.908 3.156A7.502 7.502 0 0 1 63.039 24c-2.111 0-3.948-.752-5.51-2.257-1.563-1.504-2.345-3.648-2.345-6.434 0-2.765.766-4.905 2.299-6.42 1.532-1.514 3.354-2.271 5.464-2.271 1.401 0 2.7.34 3.898 1.021 1.197.682 2.1 1.662 2.71 2.943l-2.405 1.342c-.407-.854-.99-1.515-1.751-1.983a4.607 4.607 0 0 0-2.452-.701c-1.36 0-2.531.53-3.516 1.586-.984 1.057-1.476 2.542-1.476 4.452 0 1.952.512 3.451 1.537 4.499 1.025 1.047 2.248 1.57 3.669 1.57a4.95 4.95 0 0 0 2.694-.778c.822-.518 1.446-1.244 1.872-2.18zM20.856 6.618c1.563 0 2.897.493 4.004 1.479 1.106.986 1.66 2.404 1.66 4.253v11.253h-2.71V12.93c0-1.22-.335-2.16-1.005-2.82-.67-.661-1.502-.992-2.497-.992-1.238 0-2.299.432-3.182 1.296-.883.864-1.324 2.07-1.324 3.614v9.575h-2.71V.153h2.71v9.331c.406-.915 1.07-1.62 1.994-2.12.924-.497 1.944-.746 3.06-.746zm-15.345.427h3.501v2.44H5.511v9.575c0 .834.182 1.453.548 1.86.365.407.842.61 1.431.61.487 0 .994-.162 1.522-.488v2.623A7.37 7.37 0 0 1 6.85 24c-1.177 0-2.146-.406-2.907-1.22-.762-.813-1.142-2.134-1.142-3.964V9.484H0v-2.44h2.801V2.288h2.71v4.758zm35.972 6.922h-8.829c.081-1.484.583-2.643 1.507-3.476.924-.834 1.994-1.251 3.212-1.251 1.137 0 2.106.386 2.908 1.159.801.773 1.202 1.85 1.202 3.233v.335zm-4.018-7.35c-2.07 0-3.863.768-5.374 2.303-1.512 1.535-2.268 3.665-2.268 6.39 0 2.724.756 4.853 2.268 6.388C33.602 23.233 35.425 24 37.556 24c1.34 0 2.608-.326 3.805-.976 1.198-.65 2.182-1.575 2.954-2.775l-2.101-1.494c-1.015 1.749-2.547 2.622-4.597 2.622-1.38 0-2.532-.431-3.456-1.296-.924-.863-1.426-2.068-1.507-3.613h11.691v-1.8c0-2.581-.67-4.569-2.01-5.961-1.339-1.393-2.963-2.09-4.87-2.09z"/></svg>