<svg width="331" height="69" fill="none" xmlns="http://www.w3.org/2000/svg"><path d="M101.54 17.263c.3-.9.9-1.3 1.7-1.3h3.9c.4 0 .7.1 1 .4.3.3.4.6.4 1 0 .1 0 .3-.1.5l-11.6 32.4c-.2.6-.5 1.1-.7 1.3-.3.3-.7.4-1.2.4h-4.1c-.5 0-.9-.1-1.2-.4-.3-.3-.5-.7-.7-1.3l-11.6-32.4c-.1-.2-.1-.4-.1-.5 0-.4.1-.7.4-1 .3-.3.6-.4 1-.4h3.9c.8 0 1.4.4 1.7 1.3l8.7 24.6 8.6-24.6zM110.14 25.663c.3-.3.6-.4 1-.4h3.9c.4 0 .7.1 1 .4.3.3.4.6.4 1v13.1c0 2.2.5 3.8 1.4 5 .9 1.2 2.3 1.8 4.2 1.8 1.8 0 3.2-.6 4.1-1.8 1-1.2 1.5-2.9 1.5-5v-13.1c0-.4.1-.7.4-1 .3-.3.6-.4 1-.4h3.9c.4 0 .7.1 1 .4.3.3.4.6.4 1v24c0 .4-.1.7-.4 1-.3.3-.6.4-1 .4h-3.9c-.4 0-.7-.1-1-.4-.3-.3-.4-.6-.4-1v-1.2c-2 2.1-4.4 3.1-7.2 3.1-3.9 0-6.6-1.1-8.3-3.3-1.6-2.2-2.5-5.1-2.5-8.7v-13.9c.1-.4.3-.8.5-1zM157.84 26.463c1.9 1.2 3.4 2.8 4.5 4.8 1 2 1.6 4.2 1.6 6.5v2.3c0 .4-.1.7-.4 1-.3.3-.6.4-1 .4h-17.2c0 1.5.6 2.7 1.8 3.5 1.2.9 2.6 1.3 4.2 1.3 1.9 0 3.3-.4 4.4-1.2.4-.3.7-.5.9-.6.2-.1.6-.2 1-.2h4.1c.4 0 .7.1 1 .4.3.3.4.6.4.9 0 .7-.5 1.6-1.4 2.7-.9 1.1-2.3 2.1-4.1 2.9-1.8.8-3.9 1.2-6.3 1.2-2.5 0-4.8-.6-6.7-1.8-1.9-1.2-3.4-2.8-4.4-4.9-1-2.1-1.5-4.5-1.5-7.3 0-2.6.5-4.9 1.5-7 1-2.1 2.5-3.8 4.4-5 1.9-1.2 4.1-1.9 6.6-1.9 2.4.2 4.6.8 6.6 2zm-1 9.2c-.4-3.2-2.3-4.7-5.7-4.7-1.8 0-3.2.5-4.2 1.4-1 1-1.6 2.1-1.7 3.3h11.6zM201.74 25.963c-.3.3-.6.4-1 .4h-3.6c-.5 0-1-.1-1.3-.3-.3-.2-.6-.5-.8-.9-.6-1-1.4-1.7-2.5-2.3-1.1-.6-2.6-.9-4.5-.9s-3.4.4-4.7 1.1c-1.3.8-1.9 1.8-1.9 3 0 1 .3 1.8.9 2.4.6.6 1.5 1 2.8 1.4 1.3.4 3.3.9 6.2 1.5 4.2.9 7.2 2.1 9 3.8 1.9 1.6 2.8 3.8 2.8 6.6 0 2.1-.6 3.9-1.8 5.5-1.2 1.6-2.9 2.9-5.2 3.8-2.2.9-4.9 1.4-7.9 1.4-2.6 0-5-.4-7.2-1.2-2.2-.8-4-2-5.4-3.5-1.4-1.5-2.1-3.3-2.2-5.2 0-.4.1-.7.4-1 .3-.3.6-.4 1-.4h3.6c.5 0 1 .1 1.3.3.3.2.6.5.8.9.6 1.1 1.4 2 2.5 2.7 1.1.7 2.8 1 5.2 1 2.3 0 4.2-.4 5.7-1.1 1.5-.7 2.3-1.8 2.3-3.2 0-.8-.3-1.5-.9-2-.6-.5-1.4-.9-2.5-1.2-1.1-.3-2.7-.7-4.8-1.3-.9-.2-2-.4-3.3-.8-3.6-.9-6.2-2.1-7.8-3.7-1.6-1.5-2.4-3.8-2.4-6.8 0-2 .6-3.8 1.8-5.5 1.2-1.6 2.8-2.9 4.9-3.8 2.1-.9 4.4-1.4 6.9-1.4 2.9 0 5.4.5 7.5 1.5 2.1 1 3.7 2.2 4.8 3.7 1.1 1.5 1.7 2.9 1.8 4.3-.1.6-.2.9-.5 1.2zM214.44 44.863c1.1 1 2.5 1.5 4.1 1.5 1.5 0 2.7-.2 3.5-.7.8-.4 1.5-1.2 2.1-2.1.3-.4.5-.8.8-1 .3-.2.6-.4.9-.4h3.9c.4 0 .7.1 1 .4.3.3.4.6.4 1-.1 1.1-.6 2.4-1.5 3.8s-2.3 2.6-4.2 3.6c-1.9 1-4.2 1.5-6.9 1.5-2.4 0-4.6-.5-6.5-1.6-1.9-1.1-3.4-2.5-4.5-4.3-1.1-1.8-1.7-3.8-1.9-5.9 0-.4-.1-1.1-.1-2.1s0-1.7.1-2.1c.2-2.1.8-4.1 1.9-5.9 1.1-1.8 2.6-3.2 4.5-4.3 1.9-1.1 4.1-1.6 6.5-1.6 2.7 0 5 .5 6.9 1.5 1.9 1 3.3 2.2 4.2 3.6.9 1.4 1.4 2.7 1.5 3.8 0 .4-.1.7-.4 1-.3.3-.6.4-1 .4h-3.9c-.3 0-.6-.1-.9-.4-.3-.2-.5-.6-.8-1-.7-1-1.4-1.7-2.1-2.1-.8-.4-1.9-.7-3.5-.7s-2.9.5-4.1 1.5c-1.2 1-1.8 2.5-2 4.5 0 .3-.1.9-.1 1.8s0 1.5.1 1.8c.1 2 .8 3.5 2 4.5zM259.84 51.563c-.3.3-.6.4-1 .4h-3.9c-.4 0-.7-.1-1-.4-.3-.3-.4-.6-.4-1v-13c0-2.1-.5-3.8-1.5-5-1-1.2-2.5-1.8-4.4-1.8-1.8 0-3.2.6-4.3 1.9-1.1 1.2-1.6 2.9-1.6 4.9v13.1c0 .4-.1.7-.4 1-.3.3-.6.4-1 .4h-3.9c-.4 0-.7-.1-1-.4-.3-.3-.4-.6-.4-1v-33.8c0-.4.1-.7.4-1 .3-.3.6-.4 1-.4h3.9c.4 0 .7.1 1 .4.3.3.4.6.4 1v11c2.1-2.1 4.5-3.1 7.4-3.1 3.9 0 6.7 1.1 8.4 3.3 1.7 2.2 2.6 5.1 2.6 8.7v13.9c.1.3-.1.7-.3.9zM290.24 38.663c0 .9 0 1.8-.1 2.6-.2 2.1-.8 4-1.9 5.7-1.1 1.7-2.6 3.1-4.5 4.1-1.9 1-4.1 1.5-6.5 1.5-2.4 0-4.6-.5-6.5-1.5-1.9-1-3.4-2.4-4.5-4.1-1.1-1.7-1.7-3.6-1.9-5.7 0-.4-.1-1.3-.1-2.6s0-2.2.1-2.6c.2-2.1.8-4.1 1.9-5.8 1.1-1.7 2.6-3.1 4.5-4.1 1.9-1 4.1-1.5 6.5-1.5 2.4 0 4.6.5 6.5 1.5 1.9 1 3.4 2.4 4.5 4.1 1.1 1.7 1.7 3.6 1.9 5.8.1.8.1 1.7.1 2.6zm-17.2-6.5c-1.2.8-1.8 2.2-2 4.2 0 .3-.1 1.1-.1 2.3 0 1.2 0 2 .1 2.3.2 2 .9 3.3 2 4.2 1.2.8 2.5 1.2 4.2 1.2 1.6 0 3-.4 4.2-1.2 1.2-.8 1.8-2.2 2-4.2.1-.7.1-1.5.1-2.3 0-.9 0-1.6-.1-2.3-.2-2-.9-3.3-2-4.2-1.2-.8-2.5-1.2-4.2-1.2-1.6-.1-3 .3-4.2 1.2zM319.34 38.663c0 .9 0 1.8-.1 2.6-.2 2.1-.8 4-1.9 5.7-1.1 1.7-2.6 3.1-4.5 4.1-1.9 1-4.1 1.5-6.5 1.5-2.4 0-4.6-.5-6.5-1.5-1.9-1-3.4-2.4-4.5-4.1-1.1-1.7-1.7-3.6-1.9-5.7 0-.4-.1-1.3-.1-2.6s0-2.2.1-2.6c.2-2.1.8-4.1 1.9-5.8 1.1-1.7 2.6-3.1 4.5-4.1 1.9-1 4.1-1.5 6.5-1.5 2.4 0 4.6.5 6.5 1.5 1.9 1 3.4 2.4 4.5 4.1 1.1 1.7 1.7 3.6 1.9 5.8.1.8.1 1.7.1 2.6zm-17.2-6.5c-1.2.8-1.8 2.2-2 4.2 0 .3-.1 1.1-.1 2.3 0 1.2 0 2 .1 2.3.2 2 .9 3.3 2 4.2 1.1.8 2.5 1.2 4.2 1.2 1.6 0 3-.4 4.2-1.2 1.1-.8 1.8-2.2 2-4.2.1-.7.1-1.5.1-2.3 0-.9 0-1.6-.1-2.3-.2-2-.9-3.3-2-4.2-1.2-.8-2.5-1.2-4.2-1.2-1.7-.1-3.1.3-4.2 1.2zM329.84 51.563c-.3.3-.6.4-1 .4h-3.9c-.4 0-.7-.1-1-.4-.3-.3-.4-.6-.4-1v-33.7c0-.4.1-.7.4-1 .3-.3.6-.4 1-.4h3.9c.4 0 .7.1 1 .4.3.3.4.6.4 1v33.8c0 .3-.1.7-.4.9z" fill="#1D185E"/><path d="M18.087 42.713c-4.698-22.853-.247-37.85-.247-37.85s-1.19 9.13 8.17 23.844c-.12 18.24 3.53 27.756 3.53 27.756l.75-.543-.75.643s-5.55-4.457-11.453-13.85z" fill="url(#paint0_linear)"/><path d="M40.212 39.478c2.246 2.226 4.34 3.766 5.855 4.499l-.027-.014s1.7.6 2 .2c2.073-2.158 2.58-6.181 1.198-13.742-7.9-4.439-8.898-11.358-8.898-11.358s-1.423 9.606-.128 20.415z" fill="url(#paint1_linear)"/><path d="M17.84 4.863s-6.5 21.9 4.5 53.1c.3.9 0 1.9-.8 2.5l-11.6 8c-1.1.8-2.7.3-3.2-1-3.1-8.3-11.6-35.8-3-65.9.4-1.2 1.7-1.9 2.9-1.4l11.2 4.7z" fill="url(#paint2_linear)"/><path d="M40.04 48.863l-10.5 7.6s-5.6-14.6-2.7-42.3c.2-1.6 1.9-2.4 3.3-1.6l10.2 6.5s-2 13.5.9 26.5c.3 1.3-.2 2.6-1.2 3.3z" fill="url(#paint3_linear)"/><path d="M59.44 31.963l-9.7-6.3c-.6-.4-1.5.2-1.3.9 2.3 10.1 2 15.1-.4 17.6-.3.4-2-.2-2-.2 1.6.8 2 .4 2 .4 1.6-1.2 7.6-5.5 11.4-8.1 1.5-1.1 1.5-3.3 0-4.3z" fill="url(#paint4_linear)"/><defs><linearGradient id="paint0_linear" x1="29" y1="18.5" x2="35" y2="39" gradientUnits="userSpaceOnUse"><stop stop-color="#131057"/><stop offset="1" stop-color="#4F48AD"/></linearGradient><linearGradient id="paint1_linear" x1="29" y1="18.5" x2="35" y2="39" gradientUnits="userSpaceOnUse"><stop stop-color="#131057"/><stop offset="1" stop-color="#4F48AD"/></linearGradient><linearGradient id="paint2_linear" x1="18.352" y1="47.5" x2="6.62" y2="19.663" gradientUnits="userSpaceOnUse"><stop stop-color="#EE6D93"/><stop offset="1" stop-color="#F7C6B8"/></linearGradient><linearGradient id="paint3_linear" x1="32.823" y1="55.766" x2="31.015" y2="12.24" gradientUnits="userSpaceOnUse"><stop stop-color="#3CAC96"/><stop offset="1" stop-color="#5FCEB8"/></linearGradient><linearGradient id="paint4_linear" x1="53.619" y1="22.003" x2="46.587" y2="37.959" gradientUnits="userSpaceOnUse"><stop stop-color="#80C3FF"/><stop offset=".455" stop-color="#349BF7"/><stop offset="1" stop-color="#714DD6"/></linearGradient></defs></svg>