<svg xmlns="http://www.w3.org/2000/svg" viewBox="0 0 484.009 484.009">
  <path fill="#F5B63F" d="M457.021 309.299l20.238-159.582-145.187-55.092-45.974 21.953a104.51 104.51 0 0 1-6.384 20.428l34.803-16.618-14.369 154.664.804 8.286-106.042 15.995-8.703 17.165 116.276-17.531 13.405 137.177 15.604-1.537-13.488-137.969 1.359-.213 121.573 15.403.295-2.376 18.371 154.282-126.609-29.223-164.753 31.387-1.372-.26 14.81-140.725-.098-.856-.606-5.272-20.3-40.075 2.864 25.352-3.621.544-117.442-18.194.697-5.781-17.995-141.876 82.171 34.693-6.859-13.521c-2.219-2.876-4.229-5.891-6.135-8.958L6.188 113.735 27.373 280.69l-.399 3.321-.295-.047-2.409 15.486.866.118L7.037 451.605l161.225 30.229L332.7 450.519l145.121 33.49-20.8-174.71zm-137.833-28.703l-2.707.396-.592-5.894 15.108-162.587 1.785-.854 127.365 48.326-17.295 136.264-123.664-15.651zM151.41 462.742L24.329 438.91l16.314-136.918 119.252 18.478 5.417-.815.606 5.319-14.508 137.768zm31.608-139.943l-2.033-4.008-.165-1.478 5.394-.815-3.196 6.301zM112.68 146.528l69.248 136.657 68.494-135.194c13.453-15.687 21.634-36.017 21.634-58.268C272.055 40.249 231.802 0 182.326 0c-49.473 0-89.71 40.249-89.71 89.723 0 21.542 7.637 41.316 20.33 56.805h-.266zm69.652-111.95c30.402 0 55.147 24.742 55.147 55.145 0 30.401-24.745 55.147-55.147 55.147-30.402 0-55.145-24.746-55.145-55.147.001-30.403 24.737-55.145 55.145-55.145z" />
</svg>