<svg xmlns="http://www.w3.org/2000/svg" viewBox="0 0 128 128"><path fill="#262626" d="M0 0h128v128H0z"/><path fill="#FFF" d="M64.443 96.942c-.18 0-.358-.004-.536-.013a4.549 4.549 0 0 1-.35.013c-4.159 0-6.828-1.886-9.409-3.71-1.782-1.26-3.463-2.449-5.445-2.779-.967-.16-1.93-.241-2.86-.241-1.675 0-2.997.259-3.962.447-.586.115-1.092.213-1.477.213-.401 0-.837-.086-1.026-.732a23.48 23.48 0 0 1-.398-1.627c-.294-1.35-.503-2.181-1.07-2.268-6.595-1.018-8.482-2.408-8.903-3.393a1.264 1.264 0 0 1-.102-.422.743.743 0 0 1 .621-.775c10.139-1.67 14.686-12.032 14.874-12.471l.016-.036c.621-1.258.742-2.35.363-3.245-.696-1.64-2.966-2.36-4.468-2.837-.367-.116-.715-.226-.99-.335-2.998-1.184-3.247-2.4-3.13-3.02.202-1.057 1.614-1.793 2.755-1.793.313 0 .59.056.82.163 1.35.632 2.564.953 3.613.953 1.448 0 2.081-.61 2.158-.69-.037-.685-.082-1.402-.129-2.142-.303-4.793-.677-10.749.84-14.149 4.545-10.191 14.184-10.983 17.03-10.983l1.247-.012h.168c2.853 0 12.512.792 17.06 10.989 1.517 3.401 1.141 9.363.84 14.153l-.013.208c-.042.667-.083 1.315-.116 1.936.072.073.654.633 1.968.684.999-.038 2.146-.357 3.405-.947.37-.171.78-.208 1.057-.208.426 0 .859.083 1.217.232l.022.01c1.018.36 1.685 1.073 1.7 1.82.013.702-.523 1.758-3.153 2.796-.273.108-.621.219-.99.335-1.504.477-3.772 1.198-4.467 2.837-.381.895-.26 1.986.361 3.243.006.012.012.024.017.038.188.439 4.731 10.798 14.875 12.47a.744.744 0 0 1 .62.775 1.255 1.255 0 0 1-.103.423c-.419.98-2.305 2.367-8.902 3.386-.54.083-.748.785-1.07 2.258a23.4 23.4 0 0 1-.398 1.616c-.14.48-.44.705-.944.705h-.082c-.35 0-.847-.062-1.477-.185-1.116-.219-2.369-.42-3.962-.42-.93 0-1.893.081-2.861.241-1.98.33-3.66 1.517-5.439 2.775-2.586 1.828-5.255 3.714-9.415 3.714z"/></svg>