<svg xmlns="http://www.w3.org/2000/svg" viewBox="0 0 128 128"><path fill="#262626" d="M0 0h128v128H0z"/><path fill="#FFF" d="M90.546 64.38c-8.453 0-17.264-4.485-17.037-16.167.096-5.033 1.945-7.65 4.697-7.65 2.615 0 4.361 2.35 4.361 7.112 0 2.71-.726 5.677-1.261 7.432 0 0 2.605 4.546 9.728 3.153 1.512-3.36 2.334-7.71 2.334-11.524 0-10.265-5.232-16.236-14.828-16.236-9.861 0-15.633 7.582-15.633 17.58 0 9.9 4.631 18.404 12.266 22.273-3.211 6.422-7.295 12.079-11.555 16.344-7.728-9.345-14.715-21.81-17.582-46.135H34.632c5.27 40.512 20.969 53.41 25.119 55.89 2.348 1.41 4.371 1.341 6.518.134 3.369-1.918 13.49-12.035 19.1-23.889.921-.002 3.993-.045 5.032-.133"/></svg>