<svg xmlns="http://www.w3.org/2000/svg" viewBox="0 0 128 128"><path fill="#1D6FED" d="M0 0h128v128H0z"/><path fill-rule="evenodd" clip-rule="evenodd" fill="#FFF" d="M48.573 66.47h-11.47v12.102h11.29c3.881 0 6.956-1.235 6.956-5.81 0-4.487-2.59-6.292-6.776-6.292zM47.1 48.855h-9.996V59.15H47.85c3.404 0 5.964-1.534 5.964-5.236 0-4.217-3.224-5.06-6.715-5.06zM65.404 72.94c0 8.946-7.678 12.768-15.686 12.768H28.16V41.417h20.928c8.456 0 14.208 2.982 14.208 11.2 0 4.307-2.195 7.317-6.048 9.182 5.415 1.537 8.156 5.665 8.156 11.142zM75.944 44.4h17.822v5.931H75.943V44.4zm7.977 15.174c-5.6 0-7.228 3.133-7.347 5.57h14.393c-.813-4.425-2.739-5.57-7.046-5.57zm-7.347 11.324c.24 5.538 2.982 9.091 7.89 9.091 3.552 0 6.805-2.892 7.379-4.877h7.766c-2.468 7.53-8.162 11.472-15.447 11.472-10.144 0-16.531-6.897-16.531-16.772 0-9.546 6.773-16.832 16.531-16.832 10.963 0 16.26 8.1 15.627 17.918H76.574z"/></svg>