<svg xmlns="http://www.w3.org/2000/svg" viewBox="0 0 700 700">
  <rect width="100%" height="100%" fill="#222" />
  <g transform="translate(150,150)">
    <path fill="#fff" d="M368 0H96c-8.832 0-16 7.168-16 16v112H16c-8.832 0-16 7.168-16 16v224c0 8.832 7.168 16 16 16h272c8.832 0 16-7.168 16-16V256h64c8.832 0 16-7.168 16-16V16c0-8.832-7.168-16-16-16zm-16 64h-32V32h32zm-96 0V32h32v32zm-32-32v32H112V32zM80 160v32H32v-32zm192 192H32V224h48v16c0 8.832 7.168 16 16 16h176zM112 224V96h240v128zm0 0"/>
  </g>
</svg>