<svg xmlns="http://www.w3.org/2000/svg" viewBox="0 0 128 128">
  <path fill="#222" d="M0 0h128v128H0z"/>
  <g fill="#FFF">
    <path fill-rule="evenodd" clip-rule="evenodd" d="M64 29.045c-19.791 0-35.84 16.045-35.84 35.84 0 15.835 10.27 29.27 24.51 34.009 1.79.33 2.45-.779 2.45-1.725 0-.855-.034-3.678-.05-6.673-9.97 2.168-12.075-4.228-12.075-4.228-1.63-4.143-3.98-5.245-3.98-5.245-3.251-2.224.247-2.178.247-2.178 3.597.253 5.493 3.694 5.493 3.694 3.196 5.479 8.385 3.895 10.43 2.979.322-2.317 1.25-3.898 2.275-4.793-7.96-.906-16.33-3.979-16.33-17.712 0-3.913 1.401-7.11 3.694-9.62-.372-.903-1.6-4.548.348-9.485 0 0 3.009-.963 9.857 3.674 2.86-.794 5.926-1.192 8.971-1.206 3.046.014 6.114.412 8.978 1.206 6.841-4.637 9.847-3.674 9.847-3.674 1.95 4.937.724 8.582.352 9.485 2.298 2.51 3.688 5.707 3.688 9.62 0 13.766-8.385 16.796-16.365 17.684 1.285 1.112 2.43 3.293 2.43 6.637 0 4.795-.04 8.654-.04 9.835 0 .954.645 2.071 2.462 1.72C89.584 94.145 99.84 80.715 99.84 64.885c0-19.795-16.047-35.84-35.841-35.84z"/>
    <path d="M41.735 80.503c-.079.179-.359.231-.615.11-.26-.117-.405-.36-.321-.539.077-.183.357-.234.617-.111.26.117.41.361.32.54zm-.441-.327M43.187 82.123c-.171.158-.505.084-.732-.166-.235-.25-.278-.584-.105-.745.176-.158.5-.084.735.166.234.253.28.584.102.745zm-.342-.367M44.6 84.186c-.22.154-.58.01-.801-.309-.22-.318-.22-.701.005-.854.222-.153.576-.015.801.301.22.324.22.706-.005.862zm0 0M46.535 86.18c-.196.217-.614.159-.92-.137-.314-.288-.401-.7-.205-.916.2-.217.621-.155.929.139.311.288.406.7.196.915zm0 0M49.206 87.339c-.087.28-.49.407-.896.288-.405-.123-.67-.451-.588-.734.084-.284.489-.416.898-.288.405.122.67.448.586.734zm0 0M52.14 87.553c.01.296-.334.54-.761.547-.428.01-.775-.23-.78-.522 0-.298.337-.54.765-.548.426-.008.776.23.776.523zm0 0M54.87 87.089c.05.288-.246.585-.669.663-.417.076-.802-.102-.854-.388-.052-.296.25-.592.665-.669.423-.072.803.1.857.394zm0 0"/>
  </g>
</svg>