<svg xmlns="http://www.w3.org/2000/svg" viewBox="0 0 128 128"><path fill="#517EA3" d="M0 0h128v128H0z"/><path fill-rule="evenodd" clip-rule="evenodd" fill="#FFF" d="M91.57 58.483h-6.239c.454 1.765.724 3.609.724 5.516 0 12.183-9.875 22.056-22.055 22.056s-22.055-9.873-22.055-22.057c0-1.906.27-3.75.725-5.515h-6.24V88.81a2.758 2.758 0 0 0 2.759 2.755h49.622a2.757 2.757 0 0 0 2.76-2.755V58.483zm0-19.297a2.758 2.758 0 0 0-2.76-2.757h-8.268a2.757 2.757 0 0 0-2.757 2.757v8.272a2.757 2.757 0 0 0 2.757 2.757h8.268a2.758 2.758 0 0 0 2.76-2.757v-8.272zM64 50.215c-7.614 0-13.785 6.17-13.785 13.783 0 7.613 6.171 13.787 13.784 13.787 7.614 0 13.786-6.174 13.786-13.787S71.613 50.215 64 50.215M91.57 99.84H36.43c-4.567 0-8.27-3.704-8.27-8.274V36.43a8.27 8.27 0 0 1 8.27-8.269h55.14a8.268 8.268 0 0 1 8.27 8.27v55.136a8.27 8.27 0 0 1-8.27 8.274"/></svg>