<svg xmlns="http://www.w3.org/2000/svg" viewBox="0 0 128 128"><path fill="#00B389" d="M0 0h128v128H0z"/><path fill="#FFF" d="M90.546 64.38c-8.453 0-17.264-4.484-17.037-16.167.097-5.032 1.945-7.65 4.698-7.65 2.615 0 4.36 2.35 4.36 7.112 0 2.71-.725 5.678-1.26 7.433 0 0 2.605 4.546 9.727 3.152 1.513-3.36 2.334-7.708 2.334-11.523 0-10.265-5.231-16.237-14.827-16.237-9.861 0-15.633 7.583-15.633 17.58 0 9.901 4.631 18.404 12.266 22.274-3.211 6.422-7.295 12.079-11.555 16.343-7.729-9.345-14.716-21.809-17.583-46.134H34.632c5.27 40.512 20.97 53.41 25.119 55.888 2.348 1.41 4.371 1.342 6.519.135 3.369-1.917 13.49-12.035 19.098-23.889.923-.002 3.994-.044 5.034-.133"/></svg>