<svg xmlns="http://www.w3.org/2000/svg" viewBox="0 0 128 128"><path fill="#D41D20" d="M0 0h128v128H0z"/><g fill="#FFF"><path d="M38.082 62.669c-1.167 1.863-1.655 7.738-1.253 11.64.141 1.287.374 2.358.715 3.002.463.886 1.248 1.412 2.14 1.442.571.032.927-.065 11.685-3.524 0 0 4.782-1.527 4.807-1.538 1.188-.3 1.993-1.398 2.071-2.8.078-1.436-.668-2.703-1.89-3.16l-3.375-1.375c-11.564-4.77-12.08-4.958-12.666-4.965-.89-.035-1.685.417-2.234 1.278zM63.947 98.204c.188-.54.21-.916.24-12.222 0 0 .027-4.992.034-5.043.075-1.224-.715-2.335-2.015-2.837-1.336-.516-2.772-.196-3.582.806 0 0-2.356 2.802-2.365 2.802-8.106 9.515-8.44 9.954-8.635 10.518a2.222 2.222 0 0 0-.13 1.035c.048.508.276 1.006.656 1.467 1.874 2.239 10.886 5.55 13.762 5.062 1.004-.186 1.724-.745 2.035-1.588zM82.216 94.269c2.718-1.079 8.646-8.62 9.06-11.52.145-1.01-.17-1.878-.866-2.434-.457-.342-.806-.476-11.556-4.003 0 0-4.722-1.56-4.778-1.592-1.138-.44-2.441-.033-3.322 1.053-.908 1.109-1.047 2.57-.321 3.677l1.897 3.088C78.715 92.91 79.202 93.641 79.664 94c.711.557 1.615.65 2.552.269zM76.666 67.58c12.22-2.96 12.691-3.117 13.175-3.429.741-.502 1.111-1.334 1.048-2.351 0-.035.007-.069 0-.106-.315-2.997-5.574-10.807-8.163-12.072-.917-.44-1.84-.407-2.597.102-.477.308-.819.77-7.361 9.718 0 0-2.961 4.03-2.996 4.07-.778.948-.787 2.306-.032 3.465.791 1.21 2.124 1.8 3.35 1.46 0 0-.053.084-.067.103.603-.23 1.682-.494 3.643-.96zM64.393 57.491c-.21-4.843-1.663-26.409-1.838-27.407-.25-.91-.95-1.553-1.971-1.81-3.116-.774-15.04 2.569-17.252 4.846-.71.742-.973 1.654-.756 2.46.343.716 15.12 23.957 15.12 23.957 2.184 3.542 3.967 2.996 4.549 2.809.58-.175 2.35-.728 2.148-4.855z"/></g></svg>